<?xml version="1.0" encoding="utf-8"?>
<!-- Generator: Adobe Illustrator 24.0.0, SVG Export Plug-In . SVG Version: 6.00 Build 0)  -->
<svg version="1.1" id="Capa_1" xmlns="http://www.w3.org/2000/svg" xmlns:xlink="http://www.w3.org/1999/xlink" x="0px" y="0px"
	 viewBox="0 0 1200 1200" style="enable-background:new 0 0 1200 1200;" xml:space="preserve">
<style type="text/css">
	.st0{clip-path:url(#SVGID_2_);}
	.st1{fill:#7B2338;}
	.st2{opacity:0.33;clip-path:url(#SVGID_2_);}
	.st3{fill:#FFFFFF;}
	.st4{clip-path:url(#SVGID_4_);}
	.st5{opacity:0.33;clip-path:url(#SVGID_4_);}
	.st6{clip-path:url(#SVGID_6_);}
	.st7{opacity:0.33;clip-path:url(#SVGID_6_);}
	.st8{clip-path:url(#SVGID_8_);}
	.st9{opacity:0.33;clip-path:url(#SVGID_8_);}
	.st10{clip-path:url(#SVGID_10_);}
	.st11{opacity:0.33;clip-path:url(#SVGID_10_);}
	.st12{fill:none;stroke:#3C3C3B;stroke-width:9;stroke-linejoin:round;stroke-miterlimit:10;}
	.st13{fill:#FFFFFF;stroke:#3C3C3B;stroke-width:9;stroke-linejoin:round;stroke-miterlimit:10;}
	.st14{fill:none;stroke:#3C3C3B;stroke-width:9;stroke-linecap:round;stroke-linejoin:round;stroke-miterlimit:10;}
	.st15{fill:none;stroke:#3C3C3B;stroke-width:9;stroke-linecap:round;stroke-linejoin:round;}
	.st16{fill:none;stroke:#3C3C3B;stroke-width:9;stroke-linecap:round;stroke-miterlimit:10;}
	.st17{fill:#FFFFFF;stroke:#3C3C3B;stroke-width:9;stroke-linecap:round;stroke-miterlimit:10;}
	.st18{fill:#FFFFFF;stroke:#3C3C3B;stroke-width:9;stroke-linecap:round;stroke-linejoin:round;stroke-miterlimit:10;}
	.st19{fill:#595A5B;stroke:#3C3C3B;stroke-width:9;stroke-miterlimit:10;}
	.st20{fill:#595A5B;stroke:#3C3C3B;stroke-width:9;stroke-linejoin:round;stroke-miterlimit:10;}
	.st21{fill-rule:evenodd;clip-rule:evenodd;fill:none;stroke:#3C3C3B;stroke-width:9;stroke-miterlimit:10;}
	.st22{fill:#340413;}
	.st23{fill:#511521;}
	.st24{fill:#8B3546;}
	.st25{fill:#FAE9E9;}
	.st26{fill:#D39F69;}
	.st27{fill:#3C3C3B;}
	.st28{fill:#D39F68;}
	.st29{fill:#FFFFFF;stroke:#511521;stroke-width:9;stroke-linejoin:round;stroke-miterlimit:10;}
	.st30{fill:#511521;stroke:#511521;stroke-width:9;stroke-linejoin:round;stroke-miterlimit:10;}
	.st31{fill-rule:evenodd;clip-rule:evenodd;fill:#FFFFFF;}
	
		.st32{fill-rule:evenodd;clip-rule:evenodd;fill:#FFFFFF;stroke:#511521;stroke-width:9;stroke-linejoin:round;stroke-miterlimit:10;}
	.st33{fill-rule:evenodd;clip-rule:evenodd;fill:#511521;}
	
		.st34{fill-rule:evenodd;clip-rule:evenodd;fill:#511521;stroke:#FFFFFF;stroke-width:9;stroke-linejoin:round;stroke-miterlimit:10;}
	.st35{fill:#511521;stroke:#FFFFFF;stroke-width:9;stroke-linejoin:round;stroke-miterlimit:10;}
	.st36{fill:#FFFFFF;stroke:#FFFFFF;stroke-width:9;stroke-linejoin:round;stroke-miterlimit:10;}
	.st37{fill:none;stroke:#FFFFFF;stroke-width:9;stroke-linecap:round;stroke-linejoin:round;stroke-miterlimit:10;}
</style>
<ellipse class="st28" cx="589.64" cy="547.46" rx="333.87" ry="328.22"/>
<g>
	<polygon class="st31" points="803.92,372.79 808.87,769.32 659.02,722.88 663.26,423.68 	"/>
	<polygon class="st31" points="528.85,483.98 533.8,880.5 383.96,834.06 388.2,534.87 	"/>
	<g>
		<path class="st32" d="M543.97,449.66l83.44,57.6v387.13l-19.1,21.69c-1.38,1.56-3.95,0.59-3.95-1.49V528.63l-58.14-41.19v433.14
			H372.41V525.05L543.97,449.66z M484.54,747.29h30.28v-56.82l-30.28,2.47V747.29z M484.54,669.08l30.28-2.47v-68.39l-30.28,6.61
			V669.08z M484.54,580.61l30.28-6.61v-60.84l-30.28,10.77V580.61z M437.45,747.29h26.91V694.6l-26.91,2.21V747.29z M437.45,672.94
			l26.91-2.21v-61.51l-26.91,5.89V672.94z M437.45,590.9l26.91-5.88v-53.91l-26.91,9.59V590.9z M395.96,747.29h21.31v-48.83
			l-21.31,1.75V747.29z M395.96,676.35l21.31-1.75v-55.08l-21.31,4.65V676.35z M395.96,599.96l21.31-4.66v-47.41l-21.31,7.58V599.96
			z"/>
		<path class="st32" d="M674.01,713.27l21.31,1.33v-48.83l-21.31,0.42V713.27z M715.5,715.86l26.91,1.68v-52.69l-26.91,0.53V715.86z
			 M762.6,718.8l30.28,1.89v-56.82l-30.28,0.58V718.8z M674.01,486.32l21.31-4.65v-47.41l-21.31,7.59V486.32z M674.01,562.71
			l21.31-1.75v-55.08l-21.31,4.65V562.71z M674.01,633.65h21.31v-48.83l-21.31,1.75V633.65z M715.5,477.27l26.91-5.88v-53.91
			l-26.91,9.59V477.27z M715.5,559.31l26.91-2.21v-61.51l-26.91,5.89V559.31z M715.5,633.65h26.91v-52.69l-26.91,2.21V633.65z
			 M762.6,466.97l30.28-6.61v-60.84l-30.28,10.77V466.97z M762.6,555.44l30.28-2.47v-68.39l-30.28,6.61V555.44z M762.6,633.65h30.28
			v-56.82l-30.28,2.47V633.65z M822.02,336.02l83.44,57.6v526.95H882.4V414.99l-58.14-41.19v546.77H650.46V411.42L822.02,336.02z"/>
	</g>
	<g>
		<path class="st29" d="M490.46,940.36H314.22v-37.85c0-0.62,0.5-1.12,1.12-1.12h174c0.62,0,1.12,0.5,1.12,1.12V940.36z"/>
		<path class="st29" d="M471.33,901.39H333.35v-37.85c0-0.62,0.5-1.12,1.12-1.12h135.74c0.62,0,1.12,0.5,1.12,1.12V901.39z"/>
		<line class="st29" x1="277.4" y1="856.13" x2="333.35" y2="838.46"/>
		<line class="st29" x1="273.83" y1="812.49" x2="332.27" y2="815.6"/>
		<line class="st29" x1="280.61" y1="765.77" x2="333.35" y2="791.85"/>
		<g>
			<path class="st29" d="M420.23,825.57l-62.21-57.72c-6.79-6.3-7.33-17.07-1.19-24.05l0.3-0.34c6.13-6.98,16.61-7.53,23.4-1.23
				l62.21,57.72c6.79,6.3,7.33,17.07,1.19,24.05l-0.3,0.34C437.49,831.32,427.02,831.87,420.23,825.57z"/>
			<path class="st29" d="M494.51,741.02L432.3,683.3c-6.79-6.3-7.33-17.07-1.19-24.05l0.3-0.34c6.13-6.98,16.61-7.53,23.4-1.23
				l62.21,57.72c6.79,6.3,7.33,17.07,1.19,24.05l-0.3,0.34C511.78,746.77,501.3,747.32,494.51,741.02z"/>
			<polygon class="st29" points="443.57,801.01 379.41,741.49 431.46,682.24 495.62,741.77 			"/>
			<polygon class="st29" points="606.86,920.88 458.88,783.58 480.31,759.2 628.29,896.49 			"/>
		</g>
	</g>
</g>
</svg>
