<?xml version="1.0" encoding="utf-8"?>
<!-- Generator: Adobe Illustrator 24.0.0, SVG Export Plug-In . SVG Version: 6.00 Build 0)  -->
<svg version="1.1" id="Capa_1" xmlns="http://www.w3.org/2000/svg" xmlns:xlink="http://www.w3.org/1999/xlink" x="0px" y="0px"
	 viewBox="0 0 1200 1200" style="enable-background:new 0 0 1200 1200;" xml:space="preserve">
<style type="text/css">
	.st0{clip-path:url(#SVGID_2_);}
	.st1{fill:#7B2338;}
	.st2{opacity:0.33;clip-path:url(#SVGID_2_);}
	.st3{fill:#FFFFFF;}
	.st4{clip-path:url(#SVGID_4_);}
	.st5{opacity:0.33;clip-path:url(#SVGID_4_);}
	.st6{clip-path:url(#SVGID_6_);}
	.st7{opacity:0.33;clip-path:url(#SVGID_6_);}
	.st8{clip-path:url(#SVGID_8_);}
	.st9{opacity:0.33;clip-path:url(#SVGID_8_);}
	.st10{clip-path:url(#SVGID_10_);}
	.st11{opacity:0.33;clip-path:url(#SVGID_10_);}
	.st12{fill:none;stroke:#3C3C3B;stroke-width:9;stroke-linejoin:round;stroke-miterlimit:10;}
	.st13{fill:#FFFFFF;stroke:#3C3C3B;stroke-width:9;stroke-linejoin:round;stroke-miterlimit:10;}
	.st14{fill:none;stroke:#3C3C3B;stroke-width:9;stroke-linecap:round;stroke-linejoin:round;stroke-miterlimit:10;}
	.st15{fill:none;stroke:#3C3C3B;stroke-width:9;stroke-linecap:round;stroke-linejoin:round;}
	.st16{fill:none;stroke:#3C3C3B;stroke-width:9;stroke-linecap:round;stroke-miterlimit:10;}
	.st17{fill:#FFFFFF;stroke:#3C3C3B;stroke-width:9;stroke-linecap:round;stroke-miterlimit:10;}
	.st18{fill:#FFFFFF;stroke:#3C3C3B;stroke-width:9;stroke-linecap:round;stroke-linejoin:round;stroke-miterlimit:10;}
	.st19{fill:#595A5B;stroke:#3C3C3B;stroke-width:9;stroke-miterlimit:10;}
	.st20{fill:#595A5B;stroke:#3C3C3B;stroke-width:9;stroke-linejoin:round;stroke-miterlimit:10;}
	.st21{fill-rule:evenodd;clip-rule:evenodd;fill:none;stroke:#3C3C3B;stroke-width:9;stroke-miterlimit:10;}
	.st22{fill:#340413;}
	.st23{fill:#511521;}
	.st24{fill:#8B3546;}
	.st25{fill:#FAE9E9;}
	.st26{fill:#D39F69;}
	.st27{fill:#3C3C3B;}
	.st28{fill:#D39F68;}
	.st29{fill:#FFFFFF;stroke:#511521;stroke-width:9;stroke-linejoin:round;stroke-miterlimit:10;}
	.st30{fill:#511521;stroke:#511521;stroke-width:9;stroke-linejoin:round;stroke-miterlimit:10;}
	.st31{fill-rule:evenodd;clip-rule:evenodd;fill:#FFFFFF;}
	
		.st32{fill-rule:evenodd;clip-rule:evenodd;fill:#FFFFFF;stroke:#511521;stroke-width:9;stroke-linejoin:round;stroke-miterlimit:10;}
	.st33{fill-rule:evenodd;clip-rule:evenodd;fill:#511521;}
	
		.st34{fill-rule:evenodd;clip-rule:evenodd;fill:#511521;stroke:#FFFFFF;stroke-width:9;stroke-linejoin:round;stroke-miterlimit:10;}
	.st35{fill:#511521;stroke:#FFFFFF;stroke-width:9;stroke-linejoin:round;stroke-miterlimit:10;}
	.st36{fill:#FFFFFF;stroke:#FFFFFF;stroke-width:9;stroke-linejoin:round;stroke-miterlimit:10;}
	.st37{fill:none;stroke:#FFFFFF;stroke-width:9;stroke-linecap:round;stroke-linejoin:round;stroke-miterlimit:10;}
</style>
<ellipse class="st28" cx="589.64" cy="547.46" rx="333.87" ry="328.22"/>
<g>
	<rect x="498.12" y="372.98" class="st29" width="361.63" height="483.28"/>
	<line class="st29" x1="618.48" y1="756.47" x2="739.39" y2="756.47"/>
	<line class="st29" x1="633.73" y1="791.49" x2="724.13" y2="791.49"/>
	<line class="st29" x1="739.39" y1="465.14" x2="618.48" y2="465.14"/>
	<line class="st29" x1="724.14" y1="430.12" x2="633.73" y2="430.12"/>
	<g>
		<path class="st29" d="M503.32,940.36H331.69v-36.83c0-0.62,0.5-1.12,1.12-1.12H502.2c0.62,0,1.12,0.5,1.12,1.12V940.36z"/>
		<path class="st29" d="M484.69,902.41H350.32v-36.83c0-0.62,0.5-1.12,1.12-1.12h132.12c0.62,0,1.12,0.5,1.12,1.12V902.41z"/>
		<line class="st29" x1="295.84" y1="858.33" x2="350.32" y2="841.13"/>
		<line class="st29" x1="292.36" y1="815.84" x2="349.28" y2="818.87"/>
		<line class="st29" x1="298.97" y1="770.35" x2="350.32" y2="795.74"/>
		<g>
			<path class="st29" d="M434.92,828.58l-60.58-56.21c-6.61-6.14-7.13-16.62-1.16-23.42l0.29-0.33c5.97-6.8,16.17-7.33,22.79-1.19
				l60.58,56.21c6.61,6.14,7.13,16.62,1.16,23.42l-0.29,0.33C451.74,834.18,441.54,834.71,434.92,828.58z"/>
			<path class="st29" d="M507.27,746.24l-60.58-56.21c-6.61-6.14-7.13-16.62-1.16-23.42l0.29-0.33c5.97-6.8,16.17-7.33,22.79-1.2
				l60.58,56.21c6.61,6.14,7.13,16.62,1.16,23.42l-0.29,0.33C524.08,751.84,513.88,752.37,507.27,746.24z"/>
			<polygon class="st29" points="457.66,804.66 395.18,746.69 445.87,689 508.35,746.97 			"/>
			<polygon class="st29" points="616.67,921.39 472.57,787.69 493.43,763.94 637.54,897.64 			"/>
		</g>
	</g>
	<g>
		<g>
			<polyline class="st29" points="541.17,637 578.79,530.71 616.4,637 			"/>
			<path class="st29" d="M541.17,648.26c8.31,11.75,22.04,19.45,37.61,19.45c15.57,0,29.3-7.7,37.61-19.45H541.17z"/>
			<rect x="541.17" y="637" class="st29" width="75.22" height="11.26"/>
		</g>
		<g>
			<polyline class="st29" points="616.4,637 578.79,530.71 541.17,637 			"/>
			<path class="st29" d="M616.4,648.26c-8.31,11.75-22.04,19.45-37.61,19.45c-15.57,0-29.3-7.7-37.61-19.45H616.4z"/>
			
				<rect x="541.17" y="637" transform="matrix(-1 -1.224647e-16 1.224647e-16 -1 1157.5731 1285.2614)" class="st30" width="75.22" height="11.26"/>
		</g>
		<g>
			<polyline class="st29" points="816.69,637 779.08,530.71 741.46,637 			"/>
			<path class="st29" d="M816.69,648.26c-8.31,11.75-22.04,19.45-37.61,19.45c-15.57,0-29.3-7.7-37.61-19.45H816.69z"/>
			
				<rect x="741.46" y="637" transform="matrix(-1 -1.224647e-16 1.224647e-16 -1 1558.1531 1285.2614)" class="st30" width="75.22" height="11.26"/>
		</g>
		<line class="st29" x1="801.97" y1="530.71" x2="555.89" y2="530.71"/>
		<g>
			<path class="st29" d="M687.21,691.31v15.98H669.6v-15.98c-21.27-3.63-34.37-19.18-34.6-43.04h22.13
				c0.23,15.33,8.61,22.79,21.92,22.79c14.4,0,21.48-8.52,21.48-20.45c0-29.61-62.93-31.31-62.93-75.63
				c0-18.74,12.02-33.44,32.01-36.85v-16.19h17.61v15.98c20.62,3.19,32.87,18.74,33.51,41.11H698.6
				c-0.44-14.27-7.96-21.08-19.56-21.08c-12.24,0-19.33,6.82-19.33,17.47c0,29.19,63.14,29.19,63.14,75.41
				C722.86,670.64,710.2,688.11,687.21,691.31z"/>
		</g>
	</g>
</g>
</svg>
