<svg id="Capa_1" data-name="Capa 1" xmlns="http://www.w3.org/2000/svg" viewBox="0 0 1905.58 527.83"><defs><style>.cls-1{fill:#511521;}</style></defs><title>Mesa de trabajo 8</title><path class="cls-1" d="M59.29,156.89a211.83,211.83,0,0,0,24.22,23.84,173.08,173.08,0,0,0,25.72,17.56,145.4,145.4,0,0,0,13.17,6.36c2.15,1,4.38,1.77,6.54,2.6,1.06.44,2.2.73,3.28,1.1s2.13.77,3.22,1.06c2.18.6,4.28,1.27,6.44,1.7,1.08.22,2.1.54,3.16.74l3.13.59c1,.22,2.07.32,3.1.46s2,.3,3,.4c2,.15,4,.43,5.94.42a72.65,72.65,0,0,0,11.07-.39,64.63,64.63,0,0,0,9.78-1.93,53.3,53.3,0,0,0,8.33-3.25l.95-.45c.31-.14.61-.36.91-.52q.92-.52,1.8-1l1.7-1.12.85-.52c.27-.18.54-.41.81-.61.53-.4,1.06-.79,1.59-1.15l1.79-1.38,1.78-1.32c.61-.54,1.22-1.05,1.83-1.55s1.2-.94,1.83-1.49,1.25-1.16,1.88-1.7l.94-.82a12,12,0,0,0,1-.86L211,191.8c5.25-5,11-11,17.13-17.94s12.82-14.79,20.09-23.29,15.17-17.66,24.2-27.25c2.15-2.32,4.7-4.91,7.13-7.39s5-4.94,7.56-7.37c5.11-4.87,10.44-9.63,15.93-14.28a335,335,0,0,1,35.62-26.34c6.46-4,13.09-8,20.06-11.7s14.2-7.2,21.82-10.35a228,228,0,0,1,23.78-8.4,213.27,213.27,0,0,1,25.78-5.78,203.86,203.86,0,0,1,27.47-2.41A194.88,194.88,0,0,1,486,31a184,184,0,0,1,28.17,6.24q6.72,2.23,13.33,4.67c4.31,1.81,8.56,3.72,12.77,5.67a189,189,0,0,1,43.39,29.52,229.75,229.75,0,0,1,30.87,34.49,323.1,323.1,0,0,1,22.14,34.8c6.4,11.41,12.06,22.63,17.46,33.55s10.55,21.54,15.77,31.79,10.56,20.1,16.24,29.47c11.34,18.61,24.26,35.23,39.59,47.62l5.85,4.41,6.07,3.93c1,.69,2.07,1.21,3.1,1.81s2.08,1.19,3.17,1.7l3.21,1.61,3.31,1.44a110.59,110.59,0,0,0,28.13,7.64c19.61,2.75,40.36.79,60.51-4.62,2.52-.64,5-1.45,7.53-2.17s5-1.6,7.48-2.52c5-1.74,9.89-3.72,14.75-5.84s9.67-4.45,14.41-6.9c2.36-1.24,4.72-2.49,7.06-3.8,1.17-.63,2.33-1.3,3.49-2l1.73-1a16.6,16.6,0,0,0,1.6-1l2.56-1.78.64-.43.66-.51,1.32-1c1.73-1.27,3.55-2.81,5.33-4.25.89-.7,1.81-1.57,2.7-2.34s1.79-1.55,2.71-2.42c1.83-1.71,3.64-3.31,5.47-5.15,7.31-7.08,14.54-15,21.88-23.3s14.64-17.07,22.15-26L974,200.79l5.89-6.85,6-6.92c8.12-9.27,16.72-18.56,26.17-27.92,2.42-2.33,4.81-4.66,7.31-7l3.82-3.51,1.92-1.74,2-1.75,4-3.49c1.34-1.16,2.82-2.33,4.24-3.49s2.83-2.31,4.35-3.46l4.59-3.46c.78-.57,1.52-1.15,2.33-1.72l2.46-1.72c1.64-1.15,3.3-2.28,5-3.41l5.36-3.36,2.7-1.67,2.91-1.66c2-1.09,3.88-2.2,5.91-3.25l6.44-3.14,3-1.41,2.49-1.14,5-2.27,5-2.22,5.28-2.11,5.31-2.06c1.77-.68,3.52-1.38,5.43-2,3.75-1.25,7.51-2.49,11.29-3.69s7.94-2.16,11.93-3.18a228.91,228.91,0,0,1,52.68-6.34,223.07,223.07,0,0,1,55.17,6.92,279.11,279.11,0,0,1,48.44,17.64l5.45,2.62,2.72,1.32c.92.44,1.81.88,2.65,1.34l10.25,5.48,1.27.69.64.35c.26.14.33.16.77.43,1.44.9,2.88,1.8,4.31,2.73s2.86,1.86,4.28,2.81l3.8,2.74,3.76,2.8c.65.48,1.19.92,1.75,1.37l1.66,1.37,3.32,2.75,1.63,1.39,1.48,1.33,3,2.68,1.47,1.36c.5.45,1,.9,1.4,1.33l5.28,5.23c3.26,3.39,6.51,6.85,9.33,10.1l2.18,2.48c.73.83,1.37,1.6,2.05,2.42l4,4.83,3.72,4.7.92,1.18.87,1.15,1.74,2.3c2.38,3.1,4.47,6,6.67,9s4.19,5.91,6.1,8.75c4,5.8,7.58,11.36,11.11,16.85,7,10.92,13.27,21.34,19.1,31l4.31,7.12,4.12,6.74c2.67,4.43,5.26,8.46,7.61,12.13.58.89,1.19,1.85,1.74,2.67l1.66,2.44c1,1.47,2,3,2.86,4.07l.64.89.53.66c.33.44.7,1,.88,1.14s.21.26.31.4a2.75,2.75,0,0,0,.19.25l.47.54c.63.72,1.25,1.47,1.88,2.17a193.31,193.31,0,0,0,14.65,15.21,129.14,129.14,0,0,0,11.93,9.84c1.5,1.14,2.72,1.91,3.46,2.54s1.08,1,1,1.35-.66.64-1.33,1.09a6.21,6.21,0,0,0-1.82,1.56c-.38.55.26.93,1.86.71a32.38,32.38,0,0,0,7.38-2.41c3.22-1.36,7.08-3.32,11.53-5.72l3.45-1.9,3.66-2.07,7.66-4.35q15.35-8.65,30.8-17.16c10.32-5.65,20.66-11.27,31.09-16.76l15.63-8.26,16-8.33,4.24-2.21,4.42-2.23c2.89-1.47,6.07-3,9.1-4.52l4.79-2.29,2.39-1.14,2.51-1.13,5-2.24,5.22-2.21c1.71-.73,3.55-1.45,5.37-2.17s3.59-1.42,5.5-2.11,3.81-1.35,5.71-2l1.43-.49,1.5-.48,3-.93c3.9-1.26,8.18-2.36,12.31-3.44,2.14-.5,4.34-1,6.51-1.44,1.09-.22,2.16-.45,3.27-.65l3.39-.56a150.61,150.61,0,0,1,28.17-2.1c2.43.07,4.89.17,7.24.3l5.47.65c3.71.45,7.73,1,11.72,1.73a169.67,169.67,0,0,1,24.77,6.21,140.17,140.17,0,0,1,24,10.62,132.87,132.87,0,0,1,21.12,14.67,138.9,138.9,0,0,1,17,17.47l3.6,4.62c1.18,1.55,2.22,3.15,3.31,4.72,2.23,3.12,4.08,6.35,6,9.51.92,1.61,1.75,3.23,2.62,4.84s1.73,3.2,2.46,4.82c1.52,3.24,3,6.46,4.3,9.71a189.6,189.6,0,0,1,11,38.72,221.56,221.56,0,0,1,3.45,38.09l-16.77,5.66c-7.52-9.5-14.88-18.64-22.48-27a205.15,205.15,0,0,0-23.42-22.27,119.53,119.53,0,0,0-12-8.42,86.61,86.61,0,0,0-11.77-6,67.11,67.11,0,0,0-11.13-3.38,53.46,53.46,0,0,0-10.25-.88,59.53,59.53,0,0,0-9.62,1c-3.21.6-6.45,1.34-10,2.35l-5.81,1.62-3.29.91-1.5.95a8.51,8.51,0,0,0-.73.45l-.75.54-.75.48a7.1,7.1,0,0,0-.76.53c-.53.39-1,.76-1.57,1.11s-1.12.86-1.66,1.26l-.83.61-.89.71c-.6.49-1.19.9-1.8,1.38-1.29,1.08-2.51,2-3.91,3.19l-1,.85-.5.41-.54.48c-.72.63-1.43,1.26-2.15,1.85s-1.51,1.33-2.25,2-1.5,1.3-2.31,2.06l-2.37,2.15-2.47,2.32-5.14,4.8-11.22,10.75-12.59,11.88-13,12q-13,12-26.15,23.73t-26.43,23.35l-6.65,5.78-3.49,3-3.74,3.13c-5.14,4.27-11,8.84-17.69,13.62a215.8,215.8,0,0,1-23.35,14.44,174.86,174.86,0,0,1-31,12.79c-1.47.44-2.92.89-4.4,1.28l-4.49,1.14c-1.5.36-3,.74-4.51,1.06l-4.57.89c-1.52.28-3,.57-4.58.8l-4.62.63c-1.54.19-3.08.4-4.62.55l-4.63.37a172.82,172.82,0,0,1-36.24-1.21,188.79,188.79,0,0,1-32.89-7.61,211.72,211.72,0,0,1-28.54-11.71,252.7,252.7,0,0,1-45.85-29.64A306.72,306.72,0,0,1,1302,414.2c-1.33-1.47-2.6-2.95-3.89-4.43l-1-1.11-1.21-1.44-2.46-3c-1.71-2.05-3.09-3.87-4.53-5.75l-2.13-2.83-1.92-2.67c-2.63-3.63-4.85-7-7.1-10.35l-3.13-4.9c-1-1.63-2-3.16-2.93-4.75-3.82-6.24-7.21-12.25-10.36-18l-4.58-8.48c-1.45-2.71-2.92-5.52-4.28-8.16-5.58-10.73-10.55-20.77-15.29-30.09-2.34-4.61-4.65-9.13-6.83-13.27L1227.2,289c-1-1.86-2.08-3.85-3.06-5.53l-.73-1.32-.37-.66-.36-.6-1.4-2.41-2.5-4.15-2-3.28q-.36-.57-.69-1.17l-.23-.42c-.06-.13-.12-.25-.18-.39l-.08-.2a.2.2,0,0,1,0-.08,1.13,1.13,0,0,1,0-.15l0-.1s0-.08.08,0a1.4,1.4,0,0,0,.31.09l.36,0a5.86,5.86,0,0,0,.67.32,4.23,4.23,0,0,0,.71.24c.13.06-.11-.1-.17-.15l-.3-.22-.59-.44L1212,264.7c-.4-.32-.78-.59-1.16-.84l-1.12-.78-2.25-1.58a131.75,131.75,0,0,0-16-9.63,60.3,60.3,0,0,0-13.75-4.86,66.63,66.63,0,0,0-17.08-1.18c-6.67.18-14.7,1.43-23.34,3.09l-3.28.65-1.65.31-.42.08a1.1,1.1,0,0,1-.25,0l-.41.05q-.81.09-1.68.15l-2.06.4-1.06.18-1.2.33-2.43.65c-.88.3-1.77.61-2.67.89l-1.36.43c-.46.15-.95.36-1.43.53l-2.9,1.09c-1,.37-2,.85-3,1.26s-2,.8-3.11,1.29l-3.2,1.44-1.61.72-1.64.8-3.33,1.57c-2.24,1.08-4.52,2.25-6.8,3.39-9.23,4.7-18.85,10.05-28.78,15.62l-7.49,4.25-7.57,4.36-15.47,8.91c-10.44,6-21.13,12.17-32.21,18.26s-22.56,12.19-34.73,18a279.07,279.07,0,0,1-39.91,15.9c-1,.31-1.67.46-2.47.68l-2.33.6-4.68,1.2c-3.11.8-6.24,1.55-9.38,2.28-6.27,1.44-12.54,2.86-18.89,4.05s-12.67,2.39-19.07,3.37-12.81,1.86-19.28,2.54c-25.81,2.79-52.38,3.15-79-1.2A219,219,0,0,1,731,353.72a205,205,0,0,1-19-8.05c-3.05-1.57-6.16-3.07-9.2-4.67l-8.9-5.07a323,323,0,0,1-32.94-22.81c-10.35-8.09-20.22-16.46-29.73-24.89s-18.72-16.85-27.75-25.12-17.95-16.34-26.74-24-17.48-14.88-26-21.47l-6.35-4.81-6.27-4.46c-2.08-1.47-4.13-2.77-6.17-4.16l-1.52-1-1.52-.92-3-1.85a134.6,134.6,0,0,0-22.29-11.1A70.75,70.75,0,0,0,485.8,185a34.26,34.26,0,0,1-3.73-.27,28,28,0,0,1-3.55,0c-.57,0-1.1.08-1.63.08l-.79,0-.81.09c-.53.08-1,0-1.57.14s-1.07.15-1.59.18c-2.13.29-4.29.65-6.58,1.05s-4.74,1-7.32,1.65c-.66.2-1.32.36-2,.52s-1.36.41-2.05.59l-1,.28-1.07.34c-.72.24-1.42.39-2.17.67l-2.22.72c-.76.25-1.52.56-2.29.81s-1.56.54-2.35.84-1.57.56-2.39.9l-2.45.95-2.5,1c-.83.33-1.68.7-2.54,1.09s-1.7.73-2.57,1.15c-3.45,1.59-7,3.38-10.59,5.3s-7.24,4-10.94,6.28c-1.84,1.15-3.68,2.26-5.54,3.48l-2.79,1.8L398,216.58c-3.72,2.53-7.48,5.13-11.21,7.91-1.88,1.34-3.73,2.79-5.61,4.19s-3.67,2.8-5.74,4.51c-8,6.4-16.71,13.71-26.21,21.48s-19.83,16-31.43,24.25a284,284,0,0,1-39.22,23.64L273,305.21c-.9.44-1.88.85-2.86,1.27l-2.93,1.23c-2,.82-3.91,1.61-5.87,2.4s-4.09,1.46-6.13,2.17-4.1,1.41-6.15,2.07-4.29,1.2-6.42,1.77-4.25,1.15-6.44,1.66-4.53.92-6.8,1.36c-1.13.21-2.25.44-3.39.62l-3.43.48c-2.28.3-4.56.6-6.83.83-4.59.3-9.13.72-13.67.63-2.27,0-4.53,0-6.78-.08s-4.49-.28-6.71-.44-4.44-.43-6.64-.71-4.39-.56-6.54-1c-4.31-.83-8.59-1.64-12.73-2.79l-3.11-.82c-1-.27-2.07-.56-3.07-.9-2-.64-4-1.32-6-2A155.19,155.19,0,0,1,127.87,303c-3.6-1.86-7-4-10.35-6.06-1.68-1-3.28-2.2-4.9-3.31s-3.22-2.22-4.75-3.42a165.29,165.29,0,0,1-17.34-15,170.09,170.09,0,0,1-26.79-34.56,163.91,163.91,0,0,1-16.27-38.43,136.78,136.78,0,0,1-5-39.75Z"/></svg>