<svg id="Capa_1" data-name="Capa 1" xmlns="http://www.w3.org/2000/svg" viewBox="0 0 544.52 755.73"><defs><style>.cls-1{fill:#511521;}</style></defs><title>Mesa de trabajo 1</title><path class="cls-1" d="M495.87,246.25a287.18,287.18,0,0,0-8.18-36.45,278.62,278.62,0,0,0-13.08-35.32q-3.9-8.67-8.49-17.14c-3.06-5.65-6.34-11.23-9.95-16.71A212.27,212.27,0,0,0,431,109.17l-1.83-1.86c-.61-.62-1.23-1.24-1.86-1.85L423.68,102l-1.75-1.67-1.79-1.66q-1.8-1.65-3.64-3.27-7.35-6.51-15.39-12.5a235.84,235.84,0,0,0-34.42-21.36c-3-1.55-6.11-3-9.2-4.46s-6.25-2.75-9.4-4.05c-1.58-.64-3.17-1.26-4.75-1.88s-3.18-1.2-4.78-1.78c-3.19-1.16-6.42-2.23-9.64-3.25-1.62-.5-3.23-1-4.85-1.48l-2.42-.71-2.43-.67c-.81-.22-1.62-.46-2.43-.66l-2.44-.62c-1.62-.42-3.24-.8-4.87-1.19s-3.24-.73-4.86-1.09-3.25-.67-4.87-1c-3.23-.64-6.48-1.2-9.7-1.71q-9.69-1.53-19.22-2.44c-1.59-.17-3.17-.29-4.75-.43l-4.72-.36q-4.71-.3-9.38-.48c-12.43-.47-24.54-.31-36.3.3s-23.22,1.65-34.35,2.87c-5.57.61-11.07,1.3-16.5,2l-8.09,1.1-8,1.13-7.9,1.14L133,43l-15.38,2.27c-2.54.39-5.06.72-7.57,1.08l-7.5,1.05q-7.45,1-14.76,1.9c-9.74,1.15-19.28,2.07-28.56,2.6q-7.17.42-14.1.49v66.72q2.6.38,5.19.72c10.73,1.43,21.28,2.64,31.64,3.83l15.41,1.77,7.59.91c2.52.31,5,.59,7.52.92l7.44,1c2.47.33,4.92.64,7.36,1l7.27,1.06c2.41.36,4.8.72,7.18,1.11s4.73.79,7.08,1.19l3.5.61,3.47.65q6.91,1.32,13.6,2.76c8.9,1.91,17.44,4.13,25.54,6.57a227.1,227.1,0,0,1,22.77,8.11c.89.36,1.75.75,2.62,1.12l2.56,1.15,2.51,1.16c.82.4,1.66.78,2.46,1.18q4.84,2.4,9.23,5c2.91,1.73,5.68,3.47,8.29,5.28,1.31.9,2.57,1.82,3.8,2.74l.93.68.9.7c.6.46,1.18.93,1.76,1.4s1.14,1,1.71,1.43,1.1,1,1.66,1.43l1.62,1.43,1.57,1.46c.5.5,1,1,1.51,1.48l1.47,1.5c1,1,1.92,2,2.83,3a125.12,125.12,0,0,1,10,12.72c1.52,2.21,3,4.49,4.39,6.82.36.57.7,1.17,1.05,1.76l.52.89.51.9.52.9.33.78.66,1.58c1.76,4.28,3.45,8.86,5,13.72.19.6.37,1.22.56,1.83s.36,1.23.55,1.84c.35,1.25.71,2.49,1,3.77q1,3.81,1.7,7.8a127,127,0,0,1,1.45,33.3,146.64,146.64,0,0,1-2.45,17,164.26,164.26,0,0,1-4.33,16.69q-.65,2.06-1.35,4.11c-.47,1.36-.94,2.72-1.45,4.07-1,2.71-2.07,5.39-3.18,8.05q-3.37,8-7.4,15.74a268.17,268.17,0,0,1-18.51,30.35q-5.21,7.47-11.08,14.88c-3.88,5-8,9.9-12.39,14.84A390,390,0,0,1,202,427.22q-16.09,14.68-35.24,29L164.4,458l-.6.45c-.08.06-.23.17-.41.28l-.5.34-2,1.32c-2.59,1.75-5.05,3.49-7.46,5.21-4.82,3.43-9.41,6.86-13.93,10.3-9,6.89-17.68,13.85-26.15,21s-16.74,14.46-24.84,22-16,15.22-23.77,23.17q-10,10.31-19.63,21.15v159.6l.55-.46c.57-.45,1.11-.92,1.69-1.39s1.17-.95,1.77-1.42,1.24-1,1.88-1.45L53,716.57c1.31-1,2.69-2,4.12-3s2.87-2.06,4.4-3.1,3.09-2.08,4.66-3.14,3.21-2.12,4.88-3.18c6.66-4.23,13.8-8.5,21.25-12.7s15.18-8.39,23.08-12.52c15.82-8.25,32.28-16.34,49-24.21q12.54-5.93,25.21-11.73c8.44-3.85,16.9-7.68,25.35-11.42s16.88-7.42,25.17-10.9c4.13-1.75,8.23-3.44,12.17-5,2-.79,3.91-1.53,5.74-2.24l1.36-.51.33-.12.41-.17,1.06-.47,4.23-1.9A503.51,503.51,0,0,0,331.67,574a429.93,429.93,0,0,0,61.22-48.07,368.79,368.79,0,0,0,51.32-60.11,336,336,0,0,0,20.26-33.93,319.71,319.71,0,0,0,15.9-35.84A306.56,306.56,0,0,0,491.54,359q2.2-9.37,3.76-18.81c.53-3.15,1-6.29,1.43-9.44s.79-6.3,1.12-9.45A292.92,292.92,0,0,0,495.87,246.25Z"/></svg>