<svg id="Capa_1" data-name="Capa 1" xmlns="http://www.w3.org/2000/svg" viewBox="0 0 603.88 879.33"><defs><style>.cls-1{fill:#511521;}</style></defs><title>Mesa de trabajo 2</title><path class="cls-1" d="M559.22,736.51c-11.1-1.12-22-2-32.77-3L508.82,732l-8.69-.78c-2.88-.27-5.76-.5-8.61-.8l-8.52-.85c-2.82-.29-5.63-.57-8.42-.9l-8.33-1q-4.14-.48-8.23-1t-8.11-1.11l-4-.58-4-.63q-7.92-1.27-15.6-2.71c-10.22-1.87-20-4.13-29.35-6.64a259.08,259.08,0,0,1-26.24-8.5c-1-.38-2-.8-3-1.19l-3-1.23-2.9-1.24c-.95-.42-1.91-.83-2.84-1.26q-5.61-2.58-10.69-5.37c-3.38-1.88-6.6-3.77-9.64-5.75-1.51-1-3-2-4.42-3l-1.08-.75-1.05-.77c-.7-.5-1.38-1-2.06-1.54s-1.33-1-2-1.57-1.28-1.06-1.94-1.57l-1.89-1.59-1.83-1.61c-.6-.56-1.2-1.09-1.78-1.64l-1.73-1.65c-1.14-1.1-2.26-2.2-3.33-3.34a141.79,141.79,0,0,1-11.78-14.17c-1.81-2.48-3.54-5-5.23-7.64-.43-.64-.84-1.31-1.25-2l-.63-1-.61-1-.62-1-.4-.89-.81-1.78c-2.14-4.82-4.22-10-6.11-15.48-.24-.68-.46-1.38-.7-2.07s-.46-1.39-.69-2.08c-.44-1.42-.89-2.82-1.29-4.27q-1.24-4.32-2.21-8.84a144.63,144.63,0,0,1-2.75-37.93,166,166,0,0,1,2.23-19.44,186.84,186.84,0,0,1,4.39-19.19c.45-1.58.91-3.15,1.4-4.72s1-3.14,1.52-4.7c1.05-3.12,2.18-6.21,3.36-9.29q3.58-9.23,7.92-18.2a304.92,304.92,0,0,1,20.11-35.22q5.69-8.7,12.14-17.35c4.27-5.78,8.84-11.55,13.64-17.33a444.76,444.76,0,0,1,32.28-34.68Q397.33,373.91,418.7,357l2.68-2.11.67-.53a5,5,0,0,1,.46-.34l.55-.39,2.2-1.58c2.89-2.08,5.63-4.15,8.33-6.19,5.39-4.07,10.51-8.13,15.55-12.2,10.05-8.16,19.71-16.38,29.13-24.84s18.62-17,27.61-25.89S523.66,265,532.23,255.7q13.88-15.13,27-31.21V37.07a23.53,23.53,0,0,1-1.76,2.73c-.43.57-.91,1.13-1.36,1.68s-.92,1.07-1.4,1.6A79.19,79.19,0,0,1,548,49.41c-.64.54-1.24,1.1-1.89,1.65s-1.3,1.12-2,1.68-1.38,1.14-2.09,1.72l-2.16,1.75q-2.2,1.77-4.6,3.59c-1.6,1.21-3.21,2.45-4.91,3.68S527,66,525.19,67.22s-3.59,2.52-5.46,3.78c-7.45,5-15.46,10.15-23.82,15.2s-17,10.07-25.91,15c-17.77,9.94-36.28,19.7-55.09,29.24q-14.12,7.16-28.36,14.2T358,158.55c-9.52,4.53-19,9-28.34,13.27C325,174,320.38,176,315.94,178c-2.22,1-4.41,1.88-6.47,2.74l-1.53.63-.37.15-.48.21-1.19.57-4.76,2.3a574.75,574.75,0,0,0-74.4,43.49,490,490,0,0,0-68.24,56.86A420.85,420.85,0,0,0,102,355.17a385.52,385.52,0,0,0-22,39.37A363.53,363.53,0,0,0,63,436,350.27,350.27,0,0,0,51.5,478.63q-2.2,10.77-3.67,21.59c-.49,3.6-.94,7.21-1.32,10.81s-.69,7.22-.95,10.82a333.9,333.9,0,0,0,4.73,85.49,325.92,325.92,0,0,0,10.54,41.3A315.45,315.45,0,0,0,76.92,688.5q4.72,9.76,10.25,19.28c3.68,6.33,7.6,12.6,11.9,18.72a243.3,243.3,0,0,0,29.75,35.06l2.14,2.06c.72.69,1.44,1.37,2.18,2l4.27,3.89,2.06,1.85,2.09,1.83c1.41,1.21,2.82,2.42,4.26,3.61q8.61,7.17,18,13.75a269,269,0,0,0,40,23.22c3.52,1.67,7.07,3.25,10.65,4.78s7.22,2.94,10.86,4.31c1.82.68,3.65,1.33,5.48,2s3.67,1.27,5.5,1.88q5.53,1.82,11.11,3.38c1.86.52,3.71,1.05,5.58,1.53l2.79.73,2.79.69c.93.22,1.86.46,2.79.67l2.8.63c1.86.42,3.73.8,5.59,1.18s3.73.73,5.59,1.09l5.58,1c3.71.61,7.43,1.14,11.13,1.62q11.1,1.43,22,2.15c1.82.13,3.63.22,5.43.33s3.61.18,5.4.26c3.59.12,7.17.2,10.71.23,14.19.12,28-.46,41.4-1.54s26.43-2.66,39.09-4.41q9.5-1.34,18.75-2.86l9.19-1.52c3.05-.51,6.08-1,9.09-1.55l9-1.57,8.88-1.57,17.47-3.1c2.89-.53,5.75-1,8.6-1.49l8.52-1.44q8.47-1.43,16.78-2.65c11.06-1.64,21.92-3,32.49-3.92l4.46-.36Z"/></svg>