<?xml version="1.0" encoding="utf-8"?>
<!-- Generator: Adobe Illustrator 24.0.0, SVG Export Plug-In . SVG Version: 6.00 Build 0)  -->
<svg version="1.1" id="Capa_1" xmlns="http://www.w3.org/2000/svg" xmlns:xlink="http://www.w3.org/1999/xlink" x="0px" y="0px"
	 viewBox="0 0 1200 1200" style="enable-background:new 0 0 1200 1200;" xml:space="preserve">
<style type="text/css">
	.st0{clip-path:url(#SVGID_2_);}
	.st1{fill:#7B2338;}
	.st2{opacity:0.33;clip-path:url(#SVGID_2_);}
	.st3{fill:#FFFFFF;}
	.st4{clip-path:url(#SVGID_4_);}
	.st5{opacity:0.33;clip-path:url(#SVGID_4_);}
	.st6{clip-path:url(#SVGID_6_);}
	.st7{opacity:0.33;clip-path:url(#SVGID_6_);}
	.st8{clip-path:url(#SVGID_8_);}
	.st9{opacity:0.33;clip-path:url(#SVGID_8_);}
	.st10{clip-path:url(#SVGID_10_);}
	.st11{opacity:0.33;clip-path:url(#SVGID_10_);}
	.st12{fill:none;stroke:#3C3C3B;stroke-width:9;stroke-linejoin:round;stroke-miterlimit:10;}
	.st13{fill:#FFFFFF;stroke:#3C3C3B;stroke-width:9;stroke-linejoin:round;stroke-miterlimit:10;}
	.st14{fill:none;stroke:#3C3C3B;stroke-width:9;stroke-linecap:round;stroke-linejoin:round;stroke-miterlimit:10;}
	.st15{fill:none;stroke:#3C3C3B;stroke-width:9;stroke-linecap:round;stroke-linejoin:round;}
	.st16{fill:none;stroke:#3C3C3B;stroke-width:9;stroke-linecap:round;stroke-miterlimit:10;}
	.st17{fill:#FFFFFF;stroke:#3C3C3B;stroke-width:9;stroke-linecap:round;stroke-miterlimit:10;}
	.st18{fill:#FFFFFF;stroke:#3C3C3B;stroke-width:9;stroke-linecap:round;stroke-linejoin:round;stroke-miterlimit:10;}
	.st19{fill:#595A5B;stroke:#3C3C3B;stroke-width:9;stroke-miterlimit:10;}
	.st20{fill:#595A5B;stroke:#3C3C3B;stroke-width:9;stroke-linejoin:round;stroke-miterlimit:10;}
	.st21{fill-rule:evenodd;clip-rule:evenodd;fill:none;stroke:#3C3C3B;stroke-width:9;stroke-miterlimit:10;}
	.st22{fill:#340413;}
	.st23{fill:#511521;}
	.st24{fill:#8B3546;}
	.st25{fill:#FAE9E9;}
	.st26{fill:#D39F69;}
	.st27{fill:#3C3C3B;}
	.st28{fill:#D39F68;}
	.st29{fill:#FFFFFF;stroke:#511521;stroke-width:9;stroke-linejoin:round;stroke-miterlimit:10;}
	.st30{fill:#511521;stroke:#511521;stroke-width:9;stroke-linejoin:round;stroke-miterlimit:10;}
	.st31{fill-rule:evenodd;clip-rule:evenodd;fill:#FFFFFF;}
	
		.st32{fill-rule:evenodd;clip-rule:evenodd;fill:#FFFFFF;stroke:#511521;stroke-width:9;stroke-linejoin:round;stroke-miterlimit:10;}
	.st33{fill-rule:evenodd;clip-rule:evenodd;fill:#511521;}
	
		.st34{fill-rule:evenodd;clip-rule:evenodd;fill:#511521;stroke:#FFFFFF;stroke-width:9;stroke-linejoin:round;stroke-miterlimit:10;}
	.st35{fill:#511521;stroke:#FFFFFF;stroke-width:9;stroke-linejoin:round;stroke-miterlimit:10;}
	.st36{fill:#FFFFFF;stroke:#FFFFFF;stroke-width:9;stroke-linejoin:round;stroke-miterlimit:10;}
	.st37{fill:none;stroke:#FFFFFF;stroke-width:9;stroke-linecap:round;stroke-linejoin:round;stroke-miterlimit:10;}
</style>
<ellipse class="st28" cx="589.64" cy="547.46" rx="333.87" ry="328.22"/>
<g>
	<path class="st29" d="M562.91,639.7c-29.55-35.92-48.2-88.63-48.2-147.38c0-108.23,63.3-161.63,141.4-161.63
		s141.4,53.4,141.4,161.63c0,58.65-19.04,113.83-48.49,149.74l-54.53-23.87l-79.18-0.42L562.91,639.7z"/>
	<path class="st29" d="M559.8,568.22c0,0-8.85-56.03,65.32-101.95c73.95-45.78,56.89-89.31,56.89-89.31s109.56,78.78,62.37,188.31
		c-23.6,54.77-54.26,72.25-79.01,76.04c-20.78,3.18-41.74-3.96-57.88-17.43C591.17,610.28,565.94,586.93,559.8,568.22z"/>
	<path class="st29" d="M395.97,875.68c-4.24-118,74.53-138.82,105.55-149.81c13.74-4.92,19.23-6.87,24.15-8.47
		c8.36-2.75,16.6-5.84,24.73-9.27l51.06-21.17l2.63-65.92c1.14,1.03,2.29,1.95,3.43,2.86c16.03,13.5,37.09,20.6,57.81,17.4
		c13.28-2.06,28.16-8.01,42.82-21.52l2.63,67.18l50.94,21.17c8.13,3.43,16.37,6.52,24.73,9.27c4.92,1.6,10.42,3.55,24.16,8.47
		c31.14,10.99,109.9,31.82,105.55,149.81"/>
	<polygon class="st29" points="550.57,699.31 540.08,780.44 581.17,775.07 560.63,819.62 656.07,875.68 594.76,682.49 	"/>
	<polygon class="st29" points="761.57,699.31 772.06,780.44 730.98,775.07 751.52,819.62 656.07,875.68 717.39,682.49 	"/>
	<rect x="774.51" y="819.4" class="st29" width="66.64" height="34.9"/>
	<g>
		<path class="st29" d="M474.69,940.36H319.28V907.2c0-0.62,0.5-1.12,1.12-1.12h153.16c0.62,0,1.12,0.5,1.12,1.12V940.36z"/>
		<path class="st29" d="M457.82,906.08H336.15v-33.16c0-0.62,0.5-1.12,1.12-1.12h119.42c0.62,0,1.12,0.5,1.12,1.12V906.08z"/>
		<line class="st29" x1="286.82" y1="866.26" x2="336.15" y2="850.72"/>
		<line class="st29" x1="283.66" y1="827.87" x2="335.2" y2="830.6"/>
		<line class="st29" x1="289.65" y1="786.77" x2="336.15" y2="809.71"/>
		<g>
			<path class="st29" d="M412.75,839.37l-54.86-50.78c-5.99-5.54-6.46-15.02-1.05-21.15l0.26-0.3c5.41-6.14,14.64-6.62,20.63-1.08
				l54.86,50.78c5.99,5.54,6.46,15.01,1.05,21.15l-0.26,0.3C427.98,844.43,418.74,844.92,412.75,839.37z"/>
			<path class="st29" d="M478.26,764.99l-54.86-50.78c-5.99-5.54-6.46-15.01-1.05-21.15l0.26-0.3c5.41-6.14,14.64-6.62,20.63-1.08
				l54.86,50.78c5.99,5.54,6.46,15.02,1.05,21.15l-0.26,0.3C493.48,770.05,484.24,770.53,478.26,764.99z"/>
			<polygon class="st29" points="433.33,817.77 376.76,765.4 422.66,713.28 479.23,765.65 			"/>
			<polygon class="st29" points="577.32,923.22 446.84,802.44 465.73,780.98 596.21,901.76 			"/>
		</g>
	</g>
</g>
</svg>
