<?xml version="1.0" encoding="utf-8"?>
<!-- Generator: Adobe Illustrator 24.0.0, SVG Export Plug-In . SVG Version: 6.00 Build 0)  -->
<svg version="1.1" id="Capa_1" xmlns="http://www.w3.org/2000/svg" xmlns:xlink="http://www.w3.org/1999/xlink" x="0px" y="0px"
	 viewBox="0 0 1200 1200" style="enable-background:new 0 0 1200 1200;" xml:space="preserve">
<style type="text/css">
	.st0{clip-path:url(#SVGID_2_);}
	.st1{fill:#7B2338;}
	.st2{opacity:0.33;clip-path:url(#SVGID_2_);}
	.st3{fill:#FFFFFF;}
	.st4{clip-path:url(#SVGID_4_);}
	.st5{opacity:0.33;clip-path:url(#SVGID_4_);}
	.st6{clip-path:url(#SVGID_6_);}
	.st7{opacity:0.33;clip-path:url(#SVGID_6_);}
	.st8{clip-path:url(#SVGID_8_);}
	.st9{opacity:0.33;clip-path:url(#SVGID_8_);}
	.st10{clip-path:url(#SVGID_10_);}
	.st11{opacity:0.33;clip-path:url(#SVGID_10_);}
	.st12{fill:none;stroke:#3C3C3B;stroke-width:9;stroke-linejoin:round;stroke-miterlimit:10;}
	.st13{fill:#FFFFFF;stroke:#3C3C3B;stroke-width:9;stroke-linejoin:round;stroke-miterlimit:10;}
	.st14{fill:none;stroke:#3C3C3B;stroke-width:9;stroke-linecap:round;stroke-linejoin:round;stroke-miterlimit:10;}
	.st15{fill:none;stroke:#3C3C3B;stroke-width:9;stroke-linecap:round;stroke-linejoin:round;}
	.st16{fill:none;stroke:#3C3C3B;stroke-width:9;stroke-linecap:round;stroke-miterlimit:10;}
	.st17{fill:#FFFFFF;stroke:#3C3C3B;stroke-width:9;stroke-linecap:round;stroke-miterlimit:10;}
	.st18{fill:#FFFFFF;stroke:#3C3C3B;stroke-width:9;stroke-linecap:round;stroke-linejoin:round;stroke-miterlimit:10;}
	.st19{fill:#595A5B;stroke:#3C3C3B;stroke-width:9;stroke-miterlimit:10;}
	.st20{fill:#595A5B;stroke:#3C3C3B;stroke-width:9;stroke-linejoin:round;stroke-miterlimit:10;}
	.st21{fill-rule:evenodd;clip-rule:evenodd;fill:none;stroke:#3C3C3B;stroke-width:9;stroke-miterlimit:10;}
	.st22{fill:#340413;}
	.st23{fill:#511521;}
	.st24{fill:#8B3546;}
	.st25{fill:#FAE9E9;}
	.st26{fill:#D39F69;}
	.st27{fill:#3C3C3B;}
	.st28{fill:#D39F68;}
	.st29{fill:#FFFFFF;stroke:#511521;stroke-width:9;stroke-linejoin:round;stroke-miterlimit:10;}
	.st30{fill:#511521;stroke:#511521;stroke-width:9;stroke-linejoin:round;stroke-miterlimit:10;}
	.st31{fill-rule:evenodd;clip-rule:evenodd;fill:#FFFFFF;}
	
		.st32{fill-rule:evenodd;clip-rule:evenodd;fill:#FFFFFF;stroke:#511521;stroke-width:9;stroke-linejoin:round;stroke-miterlimit:10;}
	.st33{fill-rule:evenodd;clip-rule:evenodd;fill:#511521;}
	
		.st34{fill-rule:evenodd;clip-rule:evenodd;fill:#511521;stroke:#FFFFFF;stroke-width:9;stroke-linejoin:round;stroke-miterlimit:10;}
	.st35{fill:#511521;stroke:#FFFFFF;stroke-width:9;stroke-linejoin:round;stroke-miterlimit:10;}
	.st36{fill:#FFFFFF;stroke:#FFFFFF;stroke-width:9;stroke-linejoin:round;stroke-miterlimit:10;}
	.st37{fill:none;stroke:#FFFFFF;stroke-width:9;stroke-linecap:round;stroke-linejoin:round;stroke-miterlimit:10;}
</style>
<ellipse class="st28" cx="589.64" cy="547.46" rx="333.87" ry="328.22"/>
<g>
	<path class="st29" d="M636.75,980.87C390.19,860.92,379.87,520.66,379.19,505.71l-1.72-38.14l38.14-1.62
		c113.27-4.84,201.16-107.45,202.04-108.48l29.09-34.46l29.09,34.46c0.83,0.97,89.57,103.67,202.04,108.48l38.14,1.62l-1.72,38.14
		c-0.68,14.95-14.26,343.97-257.56,475.16l-9.98,2.71L636.75,980.87z"/>
	<path class="st29" d="M646.73,382.47c0,0-98.24,116.35-229.5,121.95c0,0,0,309.19,229.5,440.13
		c206.94-130.94,229.5-440.13,229.5-440.13C744.97,498.82,646.73,382.47,646.73,382.47z"/>
	<g>
		<g>
			<polyline class="st29" points="574.55,703.75 532.05,584.38 489.55,703.75 			"/>
			<path class="st29" d="M574.55,716.4c-9.39,13.2-24.91,21.85-42.5,21.85s-33.11-8.65-42.5-21.85L574.55,716.4z"/>
			
				<rect x="489.55" y="703.75" transform="matrix(-1 1.070568e-07 -1.070568e-07 -1 1064.0999 1420.1476)" class="st29" width="84.99" height="12.65"/>
		</g>
		<g>
			<polyline class="st29" points="805.64,703.75 763.15,584.38 720.65,703.75 			"/>
			<path class="st29" d="M805.64,716.4c-9.39,13.2-24.9,21.85-42.5,21.85c-17.59,0-33.11-8.65-42.5-21.85H805.64z"/>
			
				<rect x="720.65" y="703.75" transform="matrix(-1 1.070568e-07 -1.070568e-07 -1 1526.2972 1420.1476)" class="st29" width="84.99" height="12.65"/>
		</g>
		<path class="st29" d="M646.88,800.83c-0.62-0.78-28.13-22.49,4.51-44.15c3.29-2.18,6.88-3.87,10.46-5.52
			c5.49-2.54,16.19-9.5,15.15-25.01c-0.72-10.68-7.53-19.95-16.9-25.22c-10.7-6.01-23.35-9.96-30.3-11.85
			c-5.17-1.41-9.5-5.39-10.43-10.64c-0.85-4.81,0.77-10.91,9.88-16.88c6.83-4.47,14.87-6.71,23.02-7.28
			c15.41-1.08,46.89-5.56,48.13-24.19c0.4-6.02-2.92-11.65-7.66-15.42c-13.16-10.46-21.09-7.88-21.09-7.88"/>
		<path class="st29" d="M687.64,614.17c0,4.23-5.79,7.66-12.92,7.66c-7.14,0-12.92-3.43-12.92-7.66c0-4.23,5.78-7.66,12.92-7.66
			C681.85,606.51,687.64,609.94,687.64,614.17z"/>
		<path class="st29" d="M650.06,800.83c0.62-0.78,28.13-22.49-4.51-44.15c-3.29-2.18-6.88-3.87-10.46-5.52
			c-5.49-2.54-16.19-9.5-15.15-25.01c0.72-10.68,7.53-19.95,16.9-25.22c10.7-6.01,23.35-9.96,30.3-11.85
			c5.17-1.41,9.5-5.39,10.43-10.64c0.85-4.81-0.77-10.91-9.88-16.88c-6.83-4.47-14.87-6.71-23.02-7.28
			c-15.41-1.08-46.89-5.56-48.13-24.19c-0.4-6.02,2.92-11.65,7.66-15.42c13.16-10.46,21.09-7.88,21.09-7.88"/>
		<path class="st29" d="M609.3,614.17c0,4.23,5.79,7.66,12.92,7.66s12.92-3.43,12.92-7.66c0-4.23-5.79-7.66-12.92-7.66
			S609.3,609.94,609.3,614.17z"/>
		<line class="st29" x1="647.6" y1="566.17" x2="648.47" y2="815.53"/>
		<ellipse class="st29" cx="647.6" cy="552.92" rx="13.33" ry="13.25"/>
		<path class="st29" d="M624.79,564.45c0,0-14.63-31.33-39.85-23.53c-25.21,7.8-59.59,20.45-92.42,19.39
			c0,0,22.21,44.64,86.19,43.06c8.07-0.2,16.19-1.68,23.52-5.05C621.98,589.24,628.76,572.82,624.79,564.45z"/>
		<path class="st29" d="M670.41,564.45c0,0,14.63-31.33,39.85-23.53c25.21,7.8,59.59,20.45,92.42,19.39c0,0-22.21,44.64-86.19,43.06
			c-8.07-0.2-16.19-1.68-23.52-5.05C673.22,589.24,666.44,572.82,670.41,564.45z"/>
	</g>
</g>
</svg>
